<?xml version="1.0" encoding="utf-8"?>
<svg width="1300" height="1300" viewBox="0 0 356.00207 352.5531" xmlns="http://www.w3.org/2000/svg">
  <g id="layer1" transform="matrix(1, 0, 0, 1, 73.02501787282554, 27.781238969880945)">
    <g id="g50118" transform="translate(-3399.277,-3146.9164)">
      <path style="fill-opacity: 1; stroke: none; stroke-width: 0.98184; stroke-linejoin: round; stroke-dasharray: none; stroke-opacity: 1; paint-order: fill markers; stop-color: rgb(0, 0, 0); fill: rgb(24, 26, 0);" d="M 3339.601 3388.033 C 3338.842 3385.477 3340.941 3382.542 3338.773 3380.061 C 3334.434 3375.093 3328.912 3379.864 3327.478 3373.954 C 3326 3367.859 3327.586 3354.871 3332.141 3349.309 C 3334.088 3346.931 3334.959 3343.845 3335.456 3341.336 C 3335.955 3338.83 3334.85 3336.244 3335.456 3333.743 C 3335.906 3331.894 3336.67 3330.361 3336.286 3328.428 C 3335.504 3324.494 3333.195 3320.386 3330.482 3316.659 C 3329.02 3314.649 3329.08 3312.57 3327.996 3310.584 C 3326.825 3308.439 3325.619 3306.056 3326.337 3303.751 C 3326.822 3302.198 3328.686 3300.674 3329.654 3299.195 C 3331.289 3296.698 3333.132 3294.113 3334.627 3291.602 C 3336.679 3288.159 3336.664 3284.486 3337.115 3280.971 C 3337.408 3278.683 3338.478 3276.426 3338.773 3274.138 C 3339.168 3271.061 3339.192 3267.723 3338.773 3264.647 C 3338.232 3260.68 3336.833 3256.717 3334.627 3252.877 C 3333.159 3250.323 3329.543 3247.915 3328.825 3245.285 C 3327.711 3241.203 3326.991 3236.515 3327.996 3232.376 C 3328.576 3229.983 3330.004 3227.574 3330.482 3225.163 C 3331.66 3219.23 3333.716 3211.6 3336.287 3211.011 C 3337.221 3210.797 3340.317 3208.221 3341.364 3208.447 C 3345.468 3209.331 3355.828 3203.903 3360.327 3203.903 C 3367.613 3203.903 3374.788 3202.654 3381.88 3202.004 C 3394.445 3200.854 3407.266 3199.796 3420.014 3199.347 C 3425.004 3199.171 3436.598 3198.968 3441.568 3199.347 C 3444.263 3199.553 3447.392 3199.808 3449.858 3200.486 C 3450.712 3200.721 3451.4 3201.101 3452.344 3201.245 C 3453.132 3201.365 3454.008 3201.203 3454.832 3201.245 C 3456.502 3201.33 3458.13 3201.57 3459.806 3201.624 C 3467.326 3201.87 3473.161 3202.445 3480.53 3202.138 C 3485.533 3201.929 3494.175 3206.305 3499.183 3206.129 C 3510.172 3205.742 3525.069 3200.782 3536.073 3200.486 C 3540.813 3200.428 3545.445 3199.861 3550.166 3199.726 C 3556.491 3199.545 3562.915 3199.949 3569.233 3199.726 C 3574.678 3199.534 3580.291 3199.03 3585.813 3199.347 C 3588.91 3199.524 3592.866 3199.664 3595.761 3200.106 C 3596.132 3200.163 3596.219 3200.429 3596.589 3200.486 C 3597.114 3200.566 3597.753 3200.373 3598.248 3200.486 C 3598.495 3200.542 3598.052 3200.776 3598.248 3200.865 C 3598.702 3201.073 3614.081 3201.219 3614.828 3201.245 C 3622.086 3201.501 3629.083 3201.624 3636.381 3201.624 C 3638.669 3201.624 3641.604 3201.83 3643.842 3201.624 C 3646.87 3201.348 3673.096 3207.48 3670.37 3209.977 C 3668.74 3211.47 3668.578 3210.665 3667.883 3212.255 C 3667.666 3212.751 3668.152 3213.282 3667.883 3213.774 C 3666.06 3217.113 3667.972 3220.258 3668.712 3223.644 C 3669.038 3225.135 3668.249 3226.716 3668.712 3228.2 C 3668.874 3228.717 3669.38 3229.202 3669.541 3229.719 C 3669.983 3231.136 3668.804 3231.069 3669.541 3232.756 C 3669.833 3233.424 3670.791 3233.999 3671.2 3234.654 C 3671.351 3234.897 3671.024 3235.174 3671.2 3235.414 C 3671.323 3235.583 3671.752 3235.667 3672.028 3235.793 C 3672.305 3236.173 3672.714 3236.537 3672.857 3236.932 C 3673.533 3238.79 3674.831 3240.748 3675.344 3242.627 C 3675.747 3244.099 3675.344 3245.697 3675.344 3247.183 C 3675.344 3250.631 3675.138 3254.014 3674.515 3257.433 C 3674.051 3259.981 3672.643 3262.489 3672.028 3265.027 C 3671.545 3267.019 3672.673 3265.322 3672.028 3267.684 C 3671.154 3270.89 3671.2 3273.528 3671.2 3276.795 C 3671.2 3282.55 3671.618 3288.621 3674.515 3294.259 C 3678.148 3301.329 3682.23 3306.188 3681.147 3313.622 C 3680.768 3316.225 3678.934 3318.689 3677.831 3321.215 C 3676.739 3323.716 3676.602 3326.312 3675.344 3328.807 C 3674.892 3329.705 3674.107 3330.564 3673.686 3331.465 C 3672.42 3334.172 3673.511 3336.745 3672.857 3339.438 C 3671.79 3343.837 3671.2 3347.464 3671.2 3351.967 C 3671.2 3353.281 3670.814 3355.487 3671.2 3356.902 C 3671.624 3358.457 3672.31 3359.951 3672.857 3361.458 C 3673.258 3362.558 3674.943 3363.394 3675.344 3364.495 C 3675.707 3365.493 3675.124 3366.525 3675.344 3367.532 C 3675.485 3368.174 3675.998 3368.79 3676.173 3369.43 C 3676.575 3370.903 3676.173 3372.501 3676.173 3373.986 C 3676.173 3377.15 3676.173 3380.313 3676.173 3383.478 C 3676.173 3384.363 3675.855 3385.261 3676.173 3386.135 C 3676.587 3387.272 3679.114 3389.515 3677.831 3390.691 C 3676.825 3391.612 3674.941 3390.762 3673.686 3390.691 C 3671.219 3390.55 3668.712 3390.691 3666.226 3390.691 C 3661.015 3390.691 3655.624 3391.407 3650.474 3391.071 C 3646.413 3390.805 3642.582 3389.881 3638.868 3389.172 C 3631.041 3387.679 3626.585 3387.274 3618.144 3387.274 C 3612.005 3387.274 3598.11 3385.361 3592.237 3386.094 C 3579.745 3387.655 3575.474 3391.502 3562.601 3391.83 C 3550.997 3392.125 3549.59 3388.703 3538.042 3388.372 C 3529.561 3388.13 3515.18 3391.392 3506.748 3390.937 C 3498.316 3390.483 3485.608 3389.556 3477.215 3389.172 C 3469.095 3388.8 3461.042 3390.122 3453.174 3390.691 C 3443.314 3391.404 3433.244 3391.296 3423.329 3391.83 C 3420.8 3391.966 3418.397 3392.444 3415.869 3392.589 C 3413.401 3392.731 3410.768 3392.229 3408.408 3392.589 C 3408.037 3392.646 3407.855 3392.842 3407.579 3392.969 C 3406.473 3393.095 3405.394 3393.284 3404.264 3393.348 C 3397.083 3393.76 3387.874 3393.566 3381.052 3392.589 C 3375.001 3391.723 3369.719 3390.247 3363.642 3389.552 C 3362.142 3389.781 3362.1 3388.937 3361.156 3388.793 C 3359.844 3388.592 3358.365 3388.917 3357.011 3388.793 C 3356.404 3388.737 3355.939 3388.503 3355.352 3388.413 C 3352.504 3387.978 3348.4 3388.55 3345.404 3388.413 C 3343.46 3388.324 3341.536 3388.16 3339.601 3388.033 Z" id="path31991"/>
    </g>
  </g>
</svg>