<?xml version="1.0" encoding="utf-8"?>
<svg width="900" height="900" viewBox="0 0 356.00207 352.5531" xmlns="http://www.w3.org/2000/svg">
  <g id="layer1" transform="matrix(1, 0, 0, 1, 73.02501787282554, 27.781238969880917)">
    <g id="g50118" transform="translate(-3399.277,-3146.9164)">
      <path style="fill-opacity: 1; stroke: none; stroke-width: 0.98184; stroke-linejoin: round; stroke-dasharray: none; stroke-opacity: 1; paint-order: fill markers; stop-color: rgb(0, 0, 0); fill: rgb(24, 26, 0);" d="M 3341.426 3461.682 C 3340.669 3457.047 3342.762 3451.725 3340.6 3447.225 C 3336.272 3438.216 3330.765 3446.869 3329.335 3436.152 C 3327.86 3425.099 3329.442 3401.547 3333.985 3391.46 C 3335.927 3387.148 3336.796 3381.552 3337.292 3377.003 C 3337.789 3372.458 3336.687 3367.769 3337.292 3363.234 C 3337.74 3359.882 3338.502 3357.101 3338.119 3353.596 C 3337.34 3346.463 3335.037 3339.013 3332.331 3332.254 C 3330.872 3328.61 3330.932 3324.84 3329.851 3321.239 C 3328.683 3317.349 3327.48 3313.028 3328.197 3308.847 C 3328.68 3306.031 3330.539 3303.267 3331.505 3300.586 C 3333.136 3296.058 3334.974 3291.371 3336.465 3286.817 C 3338.511 3280.573 3338.496 3273.913 3338.946 3267.54 C 3339.239 3263.391 3340.306 3259.297 3340.6 3255.148 C 3340.994 3249.569 3341.018 3243.515 3340.6 3237.937 C 3340.06 3230.745 3338.665 3223.557 3336.465 3216.595 C 3335.001 3211.963 3331.394 3207.596 3330.678 3202.827 C 3329.567 3195.425 3328.849 3186.924 3329.851 3179.419 C 3330.43 3175.08 3331.854 3170.711 3332.331 3166.339 C 3333.506 3155.58 3335.556 3141.744 3338.12 3140.677 C 3339.052 3140.289 3342.14 3135.617 3343.184 3136.026 C 3347.277 3137.629 3357.61 3127.786 3362.097 3127.786 C 3369.364 3127.786 3376.521 3125.522 3383.594 3124.344 C 3396.126 3122.257 3408.914 3120.339 3421.628 3119.525 C 3426.605 3119.206 3438.169 3118.837 3443.126 3119.525 C 3445.814 3119.898 3448.934 3120.361 3451.394 3121.59 C 3452.246 3122.016 3452.932 3122.705 3453.874 3122.967 C 3454.659 3123.184 3455.533 3122.891 3456.355 3122.967 C 3458.021 3123.121 3459.644 3123.556 3461.316 3123.655 C 3468.816 3124.101 3474.636 3125.143 3481.986 3124.586 C 3486.976 3124.208 3495.595 3132.142 3500.59 3131.823 C 3511.55 3131.121 3526.408 3122.127 3537.383 3121.59 C 3542.111 3121.485 3546.731 3120.458 3551.439 3120.213 C 3557.748 3119.885 3564.155 3120.617 3570.456 3120.213 C 3575.887 3119.865 3581.485 3118.951 3586.993 3119.525 C 3590.082 3119.846 3594.028 3120.1 3596.915 3120.902 C 3597.285 3121.004 3597.372 3121.487 3597.741 3121.59 C 3598.264 3121.735 3598.902 3121.385 3599.395 3121.59 C 3599.642 3121.693 3599.2 3122.116 3599.395 3122.278 C 3599.848 3122.655 3615.187 3122.919 3615.932 3122.967 C 3623.171 3123.431 3630.15 3123.655 3637.429 3123.655 C 3639.711 3123.655 3642.638 3124.027 3644.87 3123.655 C 3647.89 3123.153 3674.047 3134.274 3671.329 3138.801 C 3669.703 3141.509 3669.541 3140.048 3668.848 3142.932 C 3668.632 3143.832 3669.116 3144.795 3668.848 3145.686 C 3667.03 3151.742 3668.937 3157.445 3669.675 3163.585 C 3670 3166.289 3669.213 3169.155 3669.675 3171.846 C 3669.836 3172.783 3670.341 3173.663 3670.502 3174.6 C 3670.943 3177.17 3669.767 3177.048 3670.502 3180.108 C 3670.793 3181.32 3671.748 3182.362 3672.156 3183.55 C 3672.307 3183.991 3671.981 3184.492 3672.156 3184.927 C 3672.279 3185.235 3672.707 3185.386 3672.982 3185.615 C 3673.258 3186.304 3673.666 3186.965 3673.809 3187.681 C 3674.483 3191.049 3675.778 3194.6 3676.29 3198.007 C 3676.691 3200.677 3676.29 3203.574 3676.29 3206.269 C 3676.29 3212.522 3676.084 3218.656 3675.463 3224.857 C 3675 3229.477 3673.596 3234.025 3672.982 3238.626 C 3672.5 3242.24 3673.626 3239.161 3672.982 3243.445 C 3672.11 3249.258 3672.156 3254.042 3672.156 3259.967 C 3672.156 3270.403 3672.573 3281.411 3675.463 3291.636 C 3679.086 3304.456 3683.157 3313.267 3682.077 3326.747 C 3681.699 3331.468 3679.87 3335.936 3678.77 3340.516 C 3677.681 3345.051 3677.544 3349.759 3676.29 3354.284 C 3675.839 3355.912 3675.056 3357.47 3674.636 3359.104 C 3673.373 3364.012 3674.461 3368.677 3673.809 3373.561 C 3672.745 3381.538 3672.156 3388.116 3672.156 3396.28 C 3672.156 3398.664 3671.771 3402.664 3672.156 3405.229 C 3672.579 3408.05 3673.263 3410.759 3673.809 3413.491 C 3674.209 3415.487 3675.89 3417.002 3676.29 3418.998 C 3676.652 3420.809 3676.07 3422.679 3676.29 3424.506 C 3676.43 3425.67 3676.942 3426.787 3677.116 3427.948 C 3677.517 3430.618 3677.116 3433.517 3677.116 3436.21 C 3677.116 3441.947 3677.116 3447.683 3677.116 3453.421 C 3677.116 3455.027 3676.799 3456.655 3677.116 3458.24 C 3677.529 3460.301 3680.05 3464.369 3678.77 3466.501 C 3677.767 3468.172 3675.888 3466.631 3674.636 3466.501 C 3672.175 3466.245 3669.675 3466.501 3667.195 3466.501 C 3661.998 3466.501 3656.621 3467.8 3651.485 3467.19 C 3647.434 3466.708 3643.613 3465.032 3639.909 3463.747 C 3632.103 3461.039 3627.658 3460.305 3619.239 3460.305 C 3613.116 3460.305 3599.258 3456.836 3593.4 3458.166 C 3580.941 3460.996 3576.681 3467.972 3563.842 3468.566 C 3552.268 3469.102 3550.865 3462.896 3539.347 3462.297 C 3530.888 3461.857 3516.545 3467.772 3508.135 3466.948 C 3499.725 3466.124 3487.05 3464.444 3478.679 3463.747 C 3470.581 3463.073 3462.549 3465.469 3454.701 3466.501 C 3444.867 3467.794 3434.824 3467.598 3424.935 3468.566 C 3422.412 3468.814 3420.015 3469.681 3417.494 3469.943 C 3415.033 3470.2 3412.406 3469.29 3410.053 3469.943 C 3409.683 3470.046 3409.501 3470.402 3409.226 3470.632 C 3408.123 3470.861 3407.046 3471.203 3405.919 3471.32 C 3398.757 3472.066 3389.572 3471.714 3382.768 3469.943 C 3376.733 3468.373 3371.465 3465.697 3365.404 3464.436 C 3363.908 3464.851 3363.866 3463.321 3362.924 3463.059 C 3361.616 3462.696 3360.141 3463.284 3358.79 3463.059 C 3358.185 3462.958 3357.721 3462.533 3357.136 3462.37 C 3354.295 3461.582 3350.202 3462.619 3347.214 3462.37 C 3345.275 3462.209 3343.356 3461.912 3341.426 3461.682 Z" id="path31991"/>
    </g>
  </g>
</svg>