<?xml version="1.0" encoding="utf-8"?>
<svg width="900" height="1050" viewBox="0 0 356.00207 352.5531" xmlns="http://www.w3.org/2000/svg">
  <g id="layer1" transform="matrix(1, 0, 0, 1, 73.02501787282554, 27.781238969880917)">
    <g id="g50118" transform="translate(-3399.277,-3146.9164)">
      <path style="fill-opacity: 1; stroke: none; stroke-width: 0.98184; stroke-linejoin: round; stroke-dasharray: none; stroke-opacity: 1; paint-order: fill markers; stop-color: rgb(0, 0, 0); fill: rgb(24, 26, 0);" d="M 3341.39 3378.145 C 3340.635 3375.748 3342.723 3372.996 3340.567 3370.668 C 3336.25 3366.009 3336.773 3336.705 3337.268 3334.353 C 3337.763 3332.002 3336.664 3329.577 3337.268 3327.232 C 3337.714 3325.498 3338.474 3324.06 3338.092 3322.247 C 3337.315 3318.559 3335.018 3314.705 3332.32 3311.21 C 3330.864 3309.326 3330.924 3307.376 3329.846 3305.513 C 3328.682 3303.501 3327.481 3301.267 3328.196 3299.105 C 3328.679 3297.648 3330.532 3296.219 3331.495 3294.833 C 3333.122 3292.491 3334.956 3290.067 3336.442 3287.712 C 3338.483 3284.482 3329.821 3265.318 3329.405 3262.433 C 3328.866 3258.714 3338.637 3254.996 3336.442 3251.396 C 3334.983 3249 3331.385 3246.741 3330.671 3244.276 C 3329.563 3240.447 3328.846 3236.051 3329.846 3232.17 C 3330.424 3229.926 3331.844 3227.666 3332.32 3225.405 C 3333.492 3219.841 3335.536 3212.685 3338.093 3212.134 C 3339.023 3211.933 3342.103 3209.517 3343.144 3209.728 C 3347.226 3210.558 3357.532 3205.467 3362.007 3205.467 C 3369.255 3205.467 3376.394 3204.296 3383.448 3203.687 C 3395.947 3202.608 3408.702 3201.616 3421.382 3201.195 C 3426.346 3201.03 3437.879 3200.839 3442.824 3201.195 C 3445.505 3201.388 3448.616 3201.627 3451.07 3202.263 C 3451.919 3202.483 3452.604 3202.839 3453.543 3202.975 C 3454.326 3203.087 3455.198 3202.936 3456.018 3202.975 C 3457.68 3203.054 3459.298 3203.279 3460.966 3203.33 C 3468.446 3203.561 3474.251 3204.1 3481.582 3203.812 C 3486.559 3203.617 3496.085 3202.139 3501.066 3201.974 C 3511.998 3201.611 3525.887 3202.54 3536.833 3202.263 C 3541.548 3202.208 3546.157 3201.678 3550.852 3201.55 C 3557.144 3201.381 3563.535 3201.76 3569.819 3201.55 C 3575.236 3201.37 3580.819 3200.898 3586.313 3201.195 C 3589.393 3201.361 3593.329 3201.492 3596.209 3201.907 C 3596.578 3201.96 3596.665 3202.21 3597.032 3202.263 C 3597.554 3202.338 3598.191 3202.156 3598.682 3202.263 C 3598.928 3202.316 3598.488 3202.535 3598.682 3202.619 C 3599.135 3202.813 3614.433 3202.95 3615.176 3202.975 C 3622.396 3203.215 3629.357 3203.33 3636.616 3203.33 C 3638.893 3203.33 3641.811 3203.523 3644.038 3203.33 C 3647.05 3203.071 3673.138 3208.823 3670.427 3211.164 C 3668.805 3212.564 3668.644 3211.808 3667.953 3213.3 C 3667.738 3213.765 3678.452 3225.426 3678.185 3225.886 C 3676.371 3229.018 3674.864 3240.021 3675.375 3241.783 C 3675.775 3243.163 3675.375 3244.661 3675.375 3246.056 C 3675.375 3249.289 3675.17 3252.461 3674.551 3255.669 C 3674.089 3258.058 3672.689 3260.41 3672.076 3262.789 C 3671.595 3264.658 3672.718 3263.066 3672.076 3265.282 C 3671.206 3268.288 3671.252 3270.762 3671.252 3273.826 C 3671.252 3279.223 3671.668 3284.916 3674.551 3290.204 C 3678.164 3296.834 3682.224 3301.39 3681.147 3308.362 C 3680.77 3310.803 3678.946 3313.114 3677.849 3315.482 C 3676.762 3317.828 3676.626 3320.263 3675.375 3322.603 C 3674.926 3323.445 3674.144 3324.251 3673.725 3325.096 C 3672.466 3327.634 3673.551 3330.047 3672.901 3332.572 C 3671.839 3336.698 3671.252 3340.099 3671.252 3344.322 C 3671.252 3345.554 3670.868 3347.624 3671.252 3348.95 C 3671.674 3350.409 3672.356 3351.81 3672.901 3353.223 C 3673.3 3354.255 3674.977 3355.039 3675.375 3356.071 C 3675.737 3357.007 3675.156 3357.974 3675.375 3358.919 C 3675.515 3359.521 3676.025 3360.099 3676.199 3360.699 C 3676.599 3362.08 3676.199 3363.579 3676.199 3364.972 C 3676.199 3367.939 3676.199 3370.906 3676.199 3373.873 C 3676.199 3374.704 3675.883 3375.546 3676.199 3376.365 C 3676.611 3377.431 3679.126 3379.535 3677.849 3380.638 C 3676.849 3381.502 3674.975 3380.704 3673.725 3380.638 C 3671.271 3380.505 3668.777 3380.638 3666.304 3380.638 C 3661.121 3380.638 3655.758 3381.309 3650.636 3380.994 C 3646.595 3380.745 3642.784 3379.878 3639.09 3379.213 C 3631.304 3377.813 3626.871 3377.433 3618.474 3377.433 C 3612.367 3377.433 3604.126 3383.081 3598.284 3383.769 C 3585.857 3385.233 3576.028 3381.398 3563.222 3381.705 C 3551.679 3381.983 3562.372 3382.494 3550.885 3382.184 C 3542.448 3381.957 3516.05 3381.295 3507.662 3380.869 C 3499.274 3380.442 3486.632 3379.573 3478.283 3379.213 C 3470.207 3378.865 3462.196 3380.104 3454.368 3380.638 C 3444.56 3381.306 3434.543 3381.205 3424.68 3381.705 C 3422.164 3381.834 3419.773 3382.282 3417.259 3382.417 C 3414.804 3382.551 3412.184 3382.08 3409.838 3382.417 C 3409.468 3382.471 3409.287 3382.655 3409.012 3382.774 C 3407.913 3382.892 3389.41 3383.333 3382.624 3382.417 C 3376.605 3381.606 3371.351 3380.221 3365.305 3379.569 C 3363.814 3379.784 3363.771 3378.993 3362.832 3378.857 C 3361.527 3378.67 3360.057 3378.974 3358.709 3378.857 C 3358.105 3378.805 3357.643 3378.585 3357.059 3378.501 C 3354.226 3378.094 3350.144 3378.63 3347.164 3378.501 C 3345.23 3378.418 3343.316 3378.264 3341.39 3378.145 Z" id="path31991"/>
    </g>
  </g>
</svg>