<?xml version="1.0" encoding="utf-8"?>
<svg width="1550" height="1531.48401" viewBox="0 0 550.00001 531.48401" fill="none" xmlns="http://www.w3.org/2000/svg">
  <path d="m 323.82088,201.54575 -75.39304,54.49201 -46.28088,-52.25261 -19.40812,-69.42131 -12.68991,61.95665 31.35156,95.54763 39.56268,16.42224 51.50614,50.75967 2.98587,93.30823 63.44959,52.2526 -33.59096,-55.23847 20.15457,-90.32236 -32.84449,-50.75967 h 32.84449 l 62.70313,26.1263 20.15457,44.04148 V 326.952 l -26.1263,-35.08388 -100.77288,-29.11217 37.32329,-35.08389 48.52027,-26.12631 z" fill="#5b3e24" id="path2" style="stroke-width:1.49293;opacity:0.9"/>
  <path d="m 297.35867,262.78431 67.66264,4.53404 51.77187,-25.33505 82.61287,25.33356 -69.32578,6.19566 -46.33312,32.35779 -72.21161,2.56337 50.04605,80.46005 64.12738,21.99088 30.21694,69.66019 -55.38179,-45.90616 -72.40867,-14.17389 -49.10252,-75.59756 c -17.21798,36.31555 -30.76932,56.8344 -30.76932,56.8344 l -78.20722,29.7392 -52.87217,48.46653 31.94426,-67.19088 66.08909,-40.75554 c 0,0 16.42523,-27.25197 25.90237,-60.9116 l -43.52643,-26.1069 h -45.16118 l -53.973944,-62.78672 53.973944,28.64039 56.17753,-5.50891 36.84256,12.28085 7.10636,-42.24548 22.53879,-50.44466 -16.92089,-85.917468 46.26296,90.323108 z" fill="#6d4a2c" stroke="#1b1917" stroke-width="8.95759" stroke-miterlimit="16" stroke-linejoin="round" id="path4" style="stroke:#312114;stroke-opacity:1;stroke-width:9;stroke-miterlimit:16;stroke-dasharray:none"/>
</svg>