<?xml version="1.0" encoding="utf-8"?>
<svg width="1520.94202" height="1550" viewBox="0 0 520.94201 550" fill="none" xmlns="http://www.w3.org/2000/svg">
  <path d="m 351.49006,260.43046 c 0,0 -34.60264,-4.55297 -47.351,-4.55297 l -32.78145,-14.56954 -17.30133,-101.98676 -75.57946,-40.066226 48.26158,47.350996 2.7318,37.33444 11.83774,90.149 -31.87085,16.39073 -46.44041,-11.83774 -48.26158,30.04967 40.97682,-7.28477 35.51324,15.48013 60.09934,-5.46358 43.70861,5.46358 25.49668,24.58609 28.22848,50.99338 -15.48012,32.78146 34.60264,-30.96027 -7.28477,-50.08278 -48.26159,-56.45696 32.78146,-9.10595 39.15563,12.74834 c -9.71296,-8.80182 -32.78146,-30.96027 -32.78146,-30.96027 z" fill="#5b3e24" id="path2" style="opacity:0.9;stroke-width:1.82119" transform="matrix(1.0000000000000002, 0, 0, 1.0000000000000002, 0, 1.1368683772161603e-13)"/>
  <path d="m 251.4192,313.17948 -29.73643,20.01854 -32.99271,53.69603 -65.82334,8.69254 55.36423,-34.86489 18.69818,-54.93809 43.60845,-30.59238 -39.89139,-67.41325 -52.59785,-19.34835 -23.69918,-58.12698 44.93246,38.95494 59.58576,13.03827 42.49206,61.651 c 14.8937,-29.70001 27.4235,-47.25812 27.4235,-47.25812 l 49.06473,-22.7649 34.60266,-42.79801 -23.6755,69.20529 -42.79801,30.04967 -17.19388,43.93627 34.85762,31.16241 57.56369,16.39073 29.13871,59.18875 -50.4676,-36.42384 -48.78646,-7.28477 -26.86623,-18.91126 2.28014,44.40794 -15.12864,56.02716 12.8485,59.18873 -41.07697,-60.09933 7.28476,-43.70861 z" fill="#6d4a2c" stroke="#1b1917" stroke-width="11.0123" stroke-miterlimit="16" stroke-linejoin="round" id="path4" style="stroke:#312114;stroke-width:8.93044;stroke-miterlimit:16;stroke-dasharray:none;stroke-opacity:1" transform="matrix(1.0000000000000002, 0, 0, 1.0000000000000002, 0, 1.1368683772161603e-13)"/>
</svg>