<?xml version="1.0" encoding="utf-8"?>
<svg width="1525" height="1582.15503" viewBox="0 0 525 582.15503" fill="none" xmlns="http://www.w3.org/2000/svg">
  <path d="M 295.11918,124.51416 232.24853,240.0466 c 0,0 -22.69183,19.07205 -36.74179,31.84288 -28.36437,25.77982 -69.40122,69.40184 -69.40122,69.40184 l 3.26601,68.17608 16.35158,-56.31893 82.85227,-44.5172 31.4343,73.89215 -73.22282,50.69936 -10.87574,75.855 30.38102,-56.34972 c 0,0 38.73543,-21.02669 56.57557,-32.64568 18.97145,-12.35608 29.80202,-24.49453 29.80202,-24.49453 l 20.41073,28.57627 -13.06238,75.52444 43.83761,-82.89128 -70.37505,-108.98113 83.68997,-54.70512 14.69671,-61.23713 -32.11801,41.16312 -67.90096,26.19661 41.23211,-109.3507 52.33369,-29.77122 z" fill="#5b3e24" id="path2" style="stroke-width:2.05319;opacity:0.9" transform="matrix(1, 0, 0, 1, 0, -2.842170943040401e-14)"/>
  <path d="m 232.27112,239.63801 5.71607,-40.0082 -20.00421,-68.17629 42.45787,-61.644895 -12.65585,72.667435 31.84288,57.15375 -7.34836,59.60177 86.54801,17.55475 55.92882,-29.39343 66.5438,24.08594 -66.5438,8.16553 -55.92882,40.00841 -83.68997,-11.02357 c 13.59826,34.90213 20.81932,88.99746 20.81932,88.99746 l -26.94398,55.11371 -11.83868,50.21274 -15.51388,-61.64489 15.51388,-54.29654 c 0,0 -11.41982,-50.42628 -28.16973,-78.38248 l -45.31404,16.33105 c -25.75478,1.54605 -61.57899,-8.76916 -61.57899,-8.76916 l -47.223311,20.53187 37.983961,-45.00791 h 51.6313 l 31.02633,-20.23622 -24.08635,-31.84083 -15.43155,-40.0082 -46.19672,-33.94021 66.72859,19.50528 c 0,0 30.79761,48.25072 55.72741,54.44313 z" fill="#6d4a2c" stroke="#1b1917" stroke-width="12.3191" stroke-miterlimit="16" stroke-linejoin="round" id="path4" style="stroke:#312114;stroke-opacity:1;stroke-width:9;stroke-miterlimit:16;stroke-dasharray:none" transform="matrix(1, 0, 0, 1, 0, -2.842170943040401e-14)"/>
</svg>
